<svg width="358" height="102" viewBox="0 0 358 102" fill="none" xmlns="http://www.w3.org/2000/svg">
<rect y="1" width="100" height="100" fill="#06AED5"/>
<path d="M82.0703 79H67.6562L44.8047 56.1094H37.6562V45.875H44.8047L67.6562 22.9844H82.0703L53.2812 50.9922L82.0703 79ZM33.5938 79H23.4375V22.9844H33.5938V79Z" fill="#032B43"/>
<path d="M146.203 62H140.438L131.297 52.8438H128.438V48.75H131.297L140.438 39.5938H146.203L134.688 50.7969L146.203 62ZM126.812 62H122.75V39.5938H126.812V62ZM165.578 56.4062C165.578 56.9688 165.479 57.5781 165.281 58.2344C165.083 58.8802 164.76 59.4844 164.312 60.0469C163.875 60.599 163.297 61.0625 162.578 61.4375C161.87 61.8125 161.005 62 159.984 62H152.656C152.094 62 151.484 61.901 150.828 61.7031C150.182 61.5052 149.578 61.1875 149.016 60.75C148.464 60.3021 148 59.724 147.625 59.0156C147.25 58.2969 147.062 57.4271 147.062 56.4062C147.062 55.8438 147.161 55.2344 147.359 54.5781C147.557 53.9219 147.875 53.3177 148.312 52.7656C148.76 52.2031 149.339 51.7344 150.047 51.3594C150.766 50.9844 151.635 50.7969 152.656 50.7969H159.984V54.6719H152.656C152.104 54.6719 151.677 54.8438 151.375 55.1875C151.073 55.5208 150.922 55.9375 150.922 56.4375C150.922 56.9688 151.094 57.3854 151.438 57.6875C151.792 57.9792 152.208 58.125 152.688 58.125H159.984C160.536 58.125 160.964 57.9583 161.266 57.625C161.568 57.2917 161.719 56.875 161.719 56.375V50.7031C161.719 50.1719 161.552 49.75 161.219 49.4375C160.896 49.125 160.484 48.9688 159.984 48.9688H151.062V45.1094H159.984C160.547 45.1094 161.151 45.2083 161.797 45.4062C162.453 45.6042 163.057 45.9271 163.609 46.375C164.172 46.8125 164.641 47.3906 165.016 48.1094C165.391 48.8177 165.578 49.6823 165.578 50.7031V56.4062ZM187.766 62H183.703V52.625C183.703 52.0938 183.609 51.6198 183.422 51.2031C183.245 50.776 183 50.4115 182.688 50.1094C182.375 49.8073 182.005 49.5781 181.578 49.4219C181.161 49.2552 180.708 49.1719 180.219 49.1719H173.109V62H169.047V47.125C169.047 46.8438 169.099 46.5833 169.203 46.3438C169.307 46.0938 169.453 45.8802 169.641 45.7031C169.828 45.5156 170.047 45.3698 170.297 45.2656C170.547 45.1615 170.812 45.1094 171.094 45.1094H180.25C180.76 45.1094 181.297 45.1667 181.859 45.2812C182.432 45.3958 182.995 45.5833 183.547 45.8438C184.109 46.0938 184.641 46.4167 185.141 46.8125C185.651 47.1979 186.099 47.6719 186.484 48.2344C186.88 48.7865 187.193 49.4271 187.422 50.1562C187.651 50.8854 187.766 51.7083 187.766 52.625V62ZM209.703 63.625C209.703 64.3229 209.615 64.9479 209.438 65.5C209.26 66.0625 209.026 66.5521 208.734 66.9688C208.443 67.3958 208.104 67.7552 207.719 68.0469C207.333 68.349 206.927 68.5938 206.5 68.7812C206.083 68.9688 205.656 69.1042 205.219 69.1875C204.792 69.2812 204.385 69.3281 204 69.3281H196.672V65.2656H204C204.552 65.2656 204.964 65.125 205.234 64.8438C205.505 64.5625 205.641 64.1562 205.641 63.625V50.7969C205.641 50.2656 205.505 49.8646 205.234 49.5938C204.964 49.3125 204.552 49.1719 204 49.1719H196.672C196.172 49.1719 195.776 49.3281 195.484 49.6406C195.193 49.9427 195.047 50.3281 195.047 50.7969V56.2969C195.047 56.8281 195.188 57.2344 195.469 57.5156C195.75 57.7969 196.161 57.9375 196.703 57.9375H204V62H196.672C196.286 62 195.88 61.9583 195.453 61.875C195.026 61.7812 194.599 61.6406 194.172 61.4531C193.755 61.2656 193.354 61.026 192.969 60.7344C192.583 60.4323 192.245 60.0729 191.953 59.6562C191.661 59.2292 191.427 58.7396 191.25 58.1875C191.073 57.625 190.984 56.9948 190.984 56.2969V50.7969C190.984 50.4115 191.026 50.0052 191.109 49.5781C191.203 49.151 191.344 48.7292 191.531 48.3125C191.719 47.8854 191.958 47.4792 192.25 47.0938C192.552 46.7083 192.911 46.3698 193.328 46.0781C193.755 45.7865 194.245 45.5521 194.797 45.375C195.349 45.1979 195.974 45.1094 196.672 45.1094H204C204.385 45.1094 204.792 45.1562 205.219 45.25C205.656 45.3333 206.083 45.4688 206.5 45.6562C206.927 45.8438 207.333 46.0885 207.719 46.3906C208.104 46.6823 208.443 47.0417 208.734 47.4688C209.026 47.8854 209.26 48.3698 209.438 48.9219C209.615 49.474 209.703 50.099 209.703 50.7969V63.625ZM244.344 62H229.688C229.312 62 228.906 61.9583 228.469 61.875C228.042 61.7812 227.615 61.6406 227.188 61.4531C226.771 61.2656 226.37 61.026 225.984 60.7344C225.599 60.4323 225.255 60.0729 224.953 59.6562C224.661 59.2292 224.427 58.7396 224.25 58.1875C224.073 57.625 223.984 56.9948 223.984 56.2969V45.2969C223.984 44.9219 224.026 44.5208 224.109 44.0938C224.203 43.6562 224.344 43.2292 224.531 42.8125C224.719 42.3854 224.964 41.9792 225.266 41.5938C225.568 41.2083 225.927 40.8698 226.344 40.5781C226.771 40.276 227.26 40.0365 227.812 39.8594C228.365 39.6823 228.99 39.5938 229.688 39.5938H244.344V43.6562H229.688C229.156 43.6562 228.75 43.7969 228.469 44.0781C228.188 44.3594 228.047 44.776 228.047 45.3281V56.2969C228.047 56.8177 228.188 57.224 228.469 57.5156C228.76 57.7969 229.167 57.9375 229.688 57.9375H244.344V62ZM265.891 56.2969C265.891 56.9948 265.802 57.625 265.625 58.1875C265.448 58.7396 265.214 59.2292 264.922 59.6562C264.63 60.0729 264.292 60.4323 263.906 60.7344C263.521 61.026 263.115 61.2656 262.688 61.4531C262.271 61.6406 261.844 61.7812 261.406 61.875C260.979 61.9583 260.573 62 260.188 62H252.859C252.297 62 251.682 61.901 251.016 61.7031C250.349 61.5052 249.729 61.1823 249.156 60.7344C248.594 60.276 248.12 59.6875 247.734 58.9688C247.359 58.2396 247.172 57.349 247.172 56.2969V50.7969C247.172 49.7552 247.359 48.875 247.734 48.1562C248.12 47.4271 248.594 46.8385 249.156 46.3906C249.729 45.9323 250.349 45.6042 251.016 45.4062C251.682 45.2083 252.297 45.1094 252.859 45.1094H260.188C261.229 45.1094 262.115 45.2969 262.844 45.6719C263.573 46.0469 264.161 46.5208 264.609 47.0938C265.057 47.6562 265.38 48.2708 265.578 48.9375C265.786 49.6042 265.891 50.224 265.891 50.7969V56.2969ZM261.828 50.8281C261.828 50.2656 261.688 49.849 261.406 49.5781C261.125 49.3073 260.719 49.1719 260.188 49.1719H252.891C252.349 49.1719 251.938 49.3125 251.656 49.5938C251.375 49.8646 251.234 50.2656 251.234 50.7969V56.2969C251.234 56.8281 251.375 57.2344 251.656 57.5156C251.938 57.7969 252.349 57.9375 252.891 57.9375H260.188C260.74 57.9375 261.151 57.7969 261.422 57.5156C261.693 57.2344 261.828 56.8281 261.828 56.2969V50.8281ZM288.078 62H284.016V52.625C284.016 52.0938 283.922 51.6198 283.734 51.2031C283.557 50.776 283.312 50.4115 283 50.1094C282.688 49.8073 282.318 49.5781 281.891 49.4219C281.474 49.2552 281.021 49.1719 280.531 49.1719H273.422V62H269.359V47.125C269.359 46.8438 269.411 46.5833 269.516 46.3438C269.62 46.0938 269.766 45.8802 269.953 45.7031C270.141 45.5156 270.359 45.3698 270.609 45.2656C270.859 45.1615 271.125 45.1094 271.406 45.1094H280.562C281.073 45.1094 281.609 45.1667 282.172 45.2812C282.745 45.3958 283.307 45.5833 283.859 45.8438C284.422 46.0938 284.953 46.4167 285.453 46.8125C285.964 47.1979 286.411 47.6719 286.797 48.2344C287.193 48.7865 287.505 49.4271 287.734 50.1562C287.964 50.8854 288.078 51.7083 288.078 52.625V62ZM307.969 56.2969C307.969 56.9948 307.88 57.625 307.703 58.1875C307.526 58.7396 307.292 59.2292 307 59.6562C306.708 60.0729 306.37 60.4323 305.984 60.7344C305.599 61.026 305.193 61.2656 304.766 61.4531C304.349 61.6406 303.922 61.7812 303.484 61.875C303.057 61.9583 302.651 62 302.266 62H291.266V57.9375H302.234C302.786 57.9375 303.203 57.7969 303.484 57.5156C303.766 57.2344 303.906 56.8281 303.906 56.2969C303.854 55.2135 303.307 54.6719 302.266 54.6719H295.969C295.073 54.6719 294.312 54.5156 293.688 54.2031C293.062 53.8906 292.552 53.5 292.156 53.0312C291.771 52.5625 291.49 52.0573 291.312 51.5156C291.146 50.974 291.062 50.4688 291.062 50C291.062 49.0938 291.224 48.3333 291.547 47.7188C291.87 47.0938 292.276 46.5885 292.766 46.2031C293.255 45.8177 293.786 45.5417 294.359 45.375C294.932 45.1979 295.469 45.1094 295.969 45.1094H305.953V49.1719H296C295.792 49.1719 295.625 49.1979 295.5 49.25C295.385 49.2917 295.297 49.3542 295.234 49.4375C295.182 49.5104 295.151 49.5938 295.141 49.6875C295.13 49.7708 295.125 49.8542 295.125 49.9375C295.135 50.1042 295.167 50.2344 295.219 50.3281C295.271 50.4219 295.333 50.4896 295.406 50.5312C295.49 50.5729 295.578 50.599 295.672 50.6094C295.776 50.6094 295.875 50.6094 295.969 50.6094H302.266C303.307 50.6094 304.193 50.7969 304.922 51.1719C305.651 51.5469 306.24 52.0208 306.688 52.5938C307.135 53.1562 307.458 53.7708 307.656 54.4375C307.865 55.1042 307.969 55.724 307.969 56.2969ZM329.297 59.9531C329.297 60.2448 329.245 60.5156 329.141 60.7656C329.036 61.0156 328.891 61.2344 328.703 61.4219C328.526 61.599 328.312 61.7396 328.062 61.8438C327.823 61.9479 327.562 62 327.281 62H318.094C317.594 62 317.057 61.9427 316.484 61.8281C315.922 61.7135 315.365 61.5312 314.812 61.2812C314.26 61.0208 313.724 60.6979 313.203 60.3125C312.693 59.9167 312.245 59.4427 311.859 58.8906C311.474 58.3281 311.161 57.6823 310.922 56.9531C310.693 56.224 310.578 55.401 310.578 54.4844V45.1094H314.641V54.4844C314.641 55.0156 314.729 55.4948 314.906 55.9219C315.094 56.3385 315.344 56.6979 315.656 57C315.969 57.3021 316.333 57.5365 316.75 57.7031C317.177 57.8594 317.635 57.9375 318.125 57.9375H325.234V45.1094H329.297V59.9531ZM340.531 62H338.719C338.135 62 337.51 61.901 336.844 61.7031C336.188 61.5052 335.573 61.1823 335 60.7344C334.427 60.276 333.953 59.6875 333.578 58.9688C333.203 58.2396 333.016 57.349 333.016 56.2969V37.9688H337.078V56.2969C337.078 56.7969 337.234 57.1979 337.547 57.5C337.859 57.7917 338.25 57.9375 338.719 57.9375H340.531V62ZM357.875 49.1719H350.781V62H346.672V49.1719H341.391V45.1094H346.672V39.5938H350.781V45.1094H357.875V49.1719Z" fill="white"/>
</svg>
